<?xml version="1.0" encoding="UTF-8" standalone="no" ?>
<!DOCTYPE svg PUBLIC "-//W3C//DTD SVG 1.1//EN" "http://www.w3.org/Graphics/SVG/1.1/DTD/svg11.dtd">
<svg xmlns="http://www.w3.org/2000/svg" xmlns:xlink="http://www.w3.org/1999/xlink" version="1.1" width="1080" height="1080" viewBox="0 0 1080 1080" xml:space="preserve">
<desc>Created with Fabric.js 5.2.4</desc>
<defs>
</defs>
<g transform="matrix(1 0 0 1 540 540)" id="73dc2006-cad0-44a0-a8b2-a2cd458d0c36"  >
<rect style="stroke: none; stroke-width: 1; stroke-dasharray: none; stroke-linecap: butt; stroke-dashoffset: 0; stroke-linejoin: miter; stroke-miterlimit: 4; fill: rgb(255,255,255); fill-rule: nonzero; opacity: 1; visibility: hidden;" vector-effect="non-scaling-stroke"  x="-540" y="-540" rx="0" ry="0" width="1080" height="1080" />
</g>
<g transform="matrix(1 0 0 1 540 540)" id="2cc21426-ac16-4d78-8eb1-80a197178dc1"  >
</g>
<g transform="matrix(45 0 0 45 540 540)"  >
<g style=""   >
		<g transform="matrix(1 0 0 1 0 0)" id="Path_48"  >
<path style="stroke: none; stroke-width: 1; stroke-dasharray: none; stroke-linecap: butt; stroke-dashoffset: 0; stroke-linejoin: miter; stroke-miterlimit: 4; fill: rgb(0,0,0); fill-rule: evenodd; opacity: 1;" vector-effect="non-scaling-stroke"  transform=" translate(-12, -12)" d="M 3 13 C 3 16.75 3 18.625 3.955 19.939 C 4.26336286188485 20.36340478604098 4.636595213959018 20.736637138115153 5.061 21.045 C 6.375 22 8.25 22 12 22 C 15.75 22 17.625 22 18.939 21.045 C 19.36340478604098 20.736637138115153 19.73663713811515 20.36340478604098 20.045 19.939 C 21 18.625 21 16.75 21 13 L 21 11 C 21 10.161 21 9.416 20.989 8.75 L 20.919 8.75 C 20.311746171314706 8.77088140038403 19.703778679277697 8.747150948523322 19.1 8.679000000000002 C 16.639416116579365 8.289393069871002 14.709606930128999 6.359583883420635 14.32 3.899 C 14.251827498077947 3.2952229557498036 14.228096984347834 2.687253878636006 14.249000000000002 2.0800000000000094 L 14.249 2.0100000000000002 C 13.584 2 12.839 2 12 2 C 8.25 2 6.375 2 5.061 2.955 C 4.636595213959017 3.26336286188485 4.263362861884849 3.6365952139590183 3.954999999999999 4.061000000000001 C 3 5.375 3 7.25 3 11 Z M 8 7.25 C 7.585786437626905 7.25 7.25 7.585786437626905 7.25 8 C 7.25 8.414213562373096 7.585786437626905 8.75 8 8.75 L 11 8.75 C 11.414213562373096 8.75 11.75 8.414213562373096 11.75 8 C 11.75 7.585786437626905 11.414213562373096 7.25 11 7.25 Z M 8 11.25 C 7.585786437626905 11.25 7.25 11.585786437626904 7.25 12 C 7.25 12.414213562373096 7.585786437626905 12.75 8 12.75 L 16 12.75 C 16.414213562373096 12.75 16.75 12.414213562373096 16.75 12 C 16.75 11.585786437626904 16.414213562373096 11.25 16 11.25 Z M 8 15.25 C 7.585786437626905 15.25 7.25 15.585786437626904 7.25 16 C 7.25 16.414213562373096 7.585786437626905 16.75 8 16.75 L 11 16.75 C 11.414213562373096 16.75 11.75 16.414213562373096 11.75 16 C 11.75 15.585786437626904 11.414213562373096 15.25 11 15.25 Z" stroke-linecap="round" />
</g>
		<g transform="matrix(1 0 0 1 6.34 -7.34)" id="Path_49"  >
<path style="stroke: none; stroke-width: 1; stroke-dasharray: none; stroke-linecap: butt; stroke-dashoffset: 0; stroke-linejoin: miter; stroke-miterlimit: 4; fill: rgb(0,0,0); fill-rule: nonzero; opacity: 1;" vector-effect="non-scaling-stroke"  transform=" translate(-18.34, -4.66)" d="M 19.335 7.2 C 19.866480991171777 7.254433145836614 20.401106156517955 7.271808463710364 20.935000000000006 7.252 C 20.952405460387183 6.125372379808764 20.643297798025298 5.017794475008699 20.045 4.062999999999999 C 19.736637138115153 3.6385952139590176 19.36340478604098 3.2653628618848485 18.939 2.9569999999999994 C 17.984228848001244 2.3586494056492517 16.87663500762895 2.0495372959185065 15.749999999999996 2.0669999999999993 C 15.730204473556244 2.6008938731356213 15.747579762203406 3.135518139202183 15.802 3.6669999999999927 C 16.089982221201364 5.485662195193692 17.51633780480631 6.912017778798636 19.335 7.199999999999999 Z" stroke-linecap="round" />
</g>
		<g transform="matrix(1 0 0 1 0 0)" id="Rectangle_315"  >
<rect style="stroke: none; stroke-width: 1; stroke-dasharray: none; stroke-linecap: butt; stroke-dashoffset: 0; stroke-linejoin: miter; stroke-miterlimit: 4; fill: none; fill-rule: nonzero; opacity: 1;" vector-effect="non-scaling-stroke"  x="-12" y="-12" rx="0" ry="0" width="24" height="24" />
</g>
</g>
</g>
</svg>