<?xml version="1.0" encoding="UTF-8" standalone="no" ?>
<!DOCTYPE svg PUBLIC "-//W3C//DTD SVG 1.1//EN" "http://www.w3.org/Graphics/SVG/1.1/DTD/svg11.dtd">
<svg xmlns="http://www.w3.org/2000/svg" xmlns:xlink="http://www.w3.org/1999/xlink" version="1.1" width="1080" height="1080" viewBox="0 0 1080 1080" xml:space="preserve">
<desc>Created with Fabric.js 5.2.4</desc>
<defs>
</defs>
<g transform="matrix(1 0 0 1 540 540)" id="be9f1fdb-1547-451a-a293-4466b5797496"  >
<rect style="stroke: none; stroke-width: 1; stroke-dasharray: none; stroke-linecap: butt; stroke-dashoffset: 0; stroke-linejoin: miter; stroke-miterlimit: 4; fill: rgb(255,255,255); fill-rule: nonzero; opacity: 1; visibility: hidden;" vector-effect="non-scaling-stroke"  x="-540" y="-540" rx="0" ry="0" width="1080" height="1080" />
</g>
<g transform="matrix(1 0 0 1 540 540)" id="fe40b39a-a128-4f74-af3a-587e2eb75158"  >
</g>
<g transform="matrix(45 0 0 45 540 540)"  >
<g style=""   >
		<g transform="matrix(1 0 0 1 -0.25 -0.33)" id="Headphone_1"  >
<path style="stroke: none; stroke-width: 1; stroke-dasharray: none; stroke-linecap: butt; stroke-dashoffset: 0; stroke-linejoin: miter; stroke-miterlimit: 4; fill: rgb(0,0,0); fill-rule: nonzero; opacity: 1;" vector-effect="non-scaling-stroke"  transform=" translate(-12, -11.92)" d="M 10.4 3.895 C 13.2442826077795 3.3788722634607082 16.16286574553321 4.266541019769207 18.238120368917002 6.278915150358824 C 20.313374992300794 8.291289280948439 21.290396329858076 11.181187663048469 20.862000000000002 14.039999999999996 L 20.854 14.094 C 19.39563695275635 14.173665673649948 18.253950099353048 15.379462634975125 18.253999999999998 16.84 L 18.253999999999998 18.84 C 18.253999999999998 20.358783062034682 19.485216937965316 21.59 21.003999999999998 21.59 C 22.52278306203468 21.59 23.753999999999998 20.358783062034682 23.753999999999998 18.84 L 23.753999999999998 16.84 C 23.75440386028946 15.834699834841604 23.20602229259291 14.909353874805394 22.323999999999998 14.427 L 22.348999999999997 14.262 C 22.95956331417617 10.196275850362301 21.132005736816186 6.149879920218014 17.677994048611062 3.919923938744974 C 14.223982360405941 1.689967957271934 9.784017639594053 1.6899679572719322 6.33000595138893 3.9199239387449722 C 2.875994263183806 6.149879920218012 1.0484366858238232 10.196275850362298 1.6589999999999954 14.261999999999999 L 1.6839999999999953 14.427 C 0.8001174358373032 14.908469625480866 0.25002881746560424 15.834490493506866 0.24999999999999978 16.841 L 0.25 18.841 C 0.25 20.359783062034683 1.481216937965318 21.591 3 21.591 C 4.518783062034682 21.591 5.75 20.359783062034683 5.75 18.841 L 5.75 16.841 C 5.750049900646948 15.380462634975125 4.608363047243648 14.174665673649947 3.149999999999999 14.095 L 3.142 14.041 C 2.423684351592108 9.253736279925224 5.637308091722289 4.761393145816539 10.399999999999997 3.8949999999999996 Z" stroke-linecap="round" />
</g>
		<g transform="matrix(1 0 0 1 0 0)" id="Rectangle_316"  >
<rect style="stroke: none; stroke-width: 1; stroke-dasharray: none; stroke-linecap: butt; stroke-dashoffset: 0; stroke-linejoin: miter; stroke-miterlimit: 4; fill: none; fill-rule: nonzero; opacity: 1;" vector-effect="non-scaling-stroke"  x="-12" y="-12" rx="0" ry="0" width="24" height="24" />
</g>
</g>
</g>
</svg>