<?xml version="1.0" encoding="UTF-8" standalone="no" ?>
<!DOCTYPE svg PUBLIC "-//W3C//DTD SVG 1.1//EN" "http://www.w3.org/Graphics/SVG/1.1/DTD/svg11.dtd">
<svg xmlns="http://www.w3.org/2000/svg" xmlns:xlink="http://www.w3.org/1999/xlink" version="1.1" width="1080" height="1080" viewBox="0 0 1080 1080" xml:space="preserve">
<desc>Created with Fabric.js 5.2.4</desc>
<defs>
</defs>
<g transform="matrix(1 0 0 1 540 540)" id="faaf1c13-08c5-4f2d-8158-f6bdef18fb0c"  >
<rect style="stroke: none; stroke-width: 1; stroke-dasharray: none; stroke-linecap: butt; stroke-dashoffset: 0; stroke-linejoin: miter; stroke-miterlimit: 4; fill: rgb(255,255,255); fill-rule: nonzero; opacity: 1; visibility: hidden;" vector-effect="non-scaling-stroke"  x="-540" y="-540" rx="0" ry="0" width="1080" height="1080" />
</g>
<g transform="matrix(1 0 0 1 540 540)" id="dbad7024-468a-451e-8ebe-5bf01ad96fbe"  >
</g>
<g transform="matrix(45 0 0 45 540 540)"  >
<g style=""   >
		<g transform="matrix(1 0 0 1 -2.75 -0.25)" id="Path_59"  >
<path style="stroke: none; stroke-width: 1; stroke-dasharray: none; stroke-linecap: butt; stroke-dashoffset: 0; stroke-linejoin: miter; stroke-miterlimit: 4; fill: rgb(0,0,0); fill-rule: nonzero; opacity: 1;" vector-effect="non-scaling-stroke"  transform=" translate(-9.5, -12)" d="M 7.733 8.752 C 7.963797654339518 8.760343675169914 8.188327581123353 8.829323683398435 8.384 8.952 C 8.784 9.152 9.290000000000001 9.459 10.028 9.914 C 10.766 10.369 11.274000000000001 10.682 11.628 10.952 C 11.842738121275723 11.083500582851268 12.020346885666498 11.267649204845581 12.143999999999998 11.486999999999998 C 12.279060567168239 11.813240741639332 12.279060567168239 12.179759258360669 12.144 12.506 C 12.020346885666498 12.72535079515442 11.842738121275723 12.909499417148732 11.628 13.041 C 11.27 13.311 10.762 13.624 10.028 14.079 C 9.294 14.534 8.781 14.845 8.384 15.041 C 8.188327581123355 15.163676316601565 7.963797654339519 15.232656324830085 7.7330000000000005 15.241 C 7.421555315710238 15.201561972791723 7.143049612158575 15.027587281334254 6.971 14.765 C 6.850686018073217 14.528779628223454 6.788949968497723 14.267087373633993 6.791 14.002 C 6.75 13.531 6.75 12.902000000000001 6.75 11.993 C 6.75 11.084 6.75 10.455 6.791 9.984 C 6.788949968497723 9.718912626366008 6.850686018073218 9.457220371776547 6.971 9.221 C 7.144495409237122 8.961069704397362 7.422780124963456 8.789789479101232 7.733 8.752 Z" stroke-linecap="round" />
</g>
		<g transform="matrix(1 0 0 1 -0.24 -0.25)" id="Path_60"  >
<path style="stroke: none; stroke-width: 1; stroke-dasharray: none; stroke-linecap: butt; stroke-dashoffset: 0; stroke-linejoin: miter; stroke-miterlimit: 4; fill: rgb(0,0,0); fill-rule: evenodd; opacity: 1;" vector-effect="non-scaling-stroke"  transform=" translate(-12.01, -12)" d="M 9.034 3.25 L 8.966 3.25 C 7.593999999999999 3.25 6.518999999999999 3.25 5.654 3.321 C 4.869593644473041 3.354255515538473 4.099644661024986 3.5432584448087243 3.3889999999999967 3.877000000000002 C 2.3073569384335273 4.428456109420135 1.4280255610574524 5.308137539096119 0.8769999999999989 6.390000000000001 C 0.5432584448087228 7.10064466102499 0.35425551553847234 7.8705936444730416 0.32099999999999995 8.655000000000001 C 0.25 9.519 0.25 10.595 0.25 11.966 L 0.25 12.033 C 0.25 13.405 0.25 14.48 0.321 15.344999999999999 C 0.3542555155384726 16.129406355526957 0.5432584448087234 16.89935533897501 0.8770000000000009 17.61 C 1.428286234025918 18.692014753326642 2.307985246673356 19.57171376597408 3.3899999999999997 20.123 C 4.100653592388054 20.456716296844796 4.870597424107432 20.645717961496437 5.654999999999999 20.679000000000002 C 6.519 20.750000000000004 7.595000000000001 20.750000000000004 8.966000000000001 20.750000000000004 L 9.034 20.750000000000004 C 10.406 20.750000000000004 11.481000000000002 20.750000000000004 12.346 20.679000000000002 C 13.13040635552696 20.64574448446153 13.90035533897501 20.45674155519128 14.611 20.123 C 15.693014753326645 19.57171376597408 16.572713765974083 18.692014753326646 17.124000000000002 17.61 Q 17.199 17.463 17.262000000000004 17.31 C 18.20243274697007 17.751931049860076 19.171241257943475 18.130768584840713 20.161999999999992 18.443999999999996 C 20.935142429512872 18.72971404642674 21.795348451773364 18.656411445467175 22.509000000000004 18.244 C 23.17250413498264 17.755305759040127 23.584080582843175 16.99665638497841 23.632000000000005 16.174 C 23.743327999685764 15.103173457845005 23.78374945350819 14.02615885351867 23.753000000000007 12.950000000000006 L 23.753000000000004 11.049999999999999 C 23.783749453508186 9.973841146481336 23.743327999685764 8.896826542155 23.632000000000005 7.826000000000006 C 23.584080582843175 7.003343615021587 23.17250413498264 6.24469424095987 22.509000000000004 5.755999999999998 C 21.795348451773364 5.343588554532824 20.935142429512872 5.270285953573259 20.162000000000003 5.555999999999998 C 19.171237315688522 5.869220252056808 18.20242807108665 6.248058073911472 17.26199999999999 6.690000000000006 Q 17.199000000000005 6.537999999999998 17.124000000000002 6.389999999999998 C 16.57245311664849 5.307832901151195 15.692386447004989 4.428116297804291 14.609999999999996 3.876999999999998 C 13.89935533897501 3.543258444808723 13.129406355526955 3.3542555155384717 12.344999999999995 3.3209999999999997 C 11.481 3.25 10.405 3.25 9.034 3.25 Z M 10.781 8.620000000000001 C 10.081000000000001 8.191 9.515 7.841000000000001 9.046000000000001 7.610000000000001 C 8.596830114889013 7.353832517286579 8.08330610084175 7.23265612722404 7.567 7.261000000000001 C 6.820810042303058 7.34901550606315 6.150418124505324 7.758922716836477 5.731999999999999 8.383000000000001 C 5.463046307302909 8.83057571141392 5.314241475159032 9.340025588128716 5.299999999999999 9.862000000000002 C 5.253 10.405 5.253 11.102 5.253 11.962 L 5.253 12.033999999999999 C 5.253 12.895999999999999 5.253 13.592999999999998 5.3 14.133999999999999 C 5.315104813453257 14.656251800076772 5.4649517985306 15.16573154933974 5.735 15.613000000000001 C 6.153197966280813 16.23682993117662 6.82317330749002 16.64670579422827 7.568999999999997 16.735 C 8.085306100841748 16.763343872775962 8.598830114889012 16.642167482713422 9.047999999999998 16.386 C 9.516999999999998 16.154999999999998 10.085999999999999 15.805 10.782999999999998 15.376 L 10.848999999999998 15.334999999999999 C 11.548999999999998 14.905999999999999 12.115999999999998 14.555 12.536999999999999 14.235 C 12.96813341024884 13.94693172693867 13.313596920164393 13.547921372986206 13.536999999999999 13.08 C 13.826500896314469 12.383900265160994 13.826500896314469 11.601099734839007 13.536999999999999 10.905000000000001 C 13.313596920164391 10.437078627013795 12.968133410248837 10.038068273061329 12.536999999999997 9.75 C 12.116 9.433000000000002 11.546999999999999 9.082000000000003 10.848999999999998 8.650000000000002 Z" stroke-linecap="round" />
</g>
		<g transform="matrix(1 0 0 1 0 0)" id="Rectangle_323"  >
<rect style="stroke: none; stroke-width: 1; stroke-dasharray: none; stroke-linecap: butt; stroke-dashoffset: 0; stroke-linejoin: miter; stroke-miterlimit: 4; fill: none; fill-rule: nonzero; opacity: 1;" vector-effect="non-scaling-stroke"  x="-12" y="-12" rx="0" ry="0" width="24" height="24" />
</g>
</g>
</g>
</svg>