<?xml version="1.0" encoding="UTF-8" standalone="no" ?>
<!DOCTYPE svg PUBLIC "-//W3C//DTD SVG 1.1//EN" "http://www.w3.org/Graphics/SVG/1.1/DTD/svg11.dtd">
<svg xmlns="http://www.w3.org/2000/svg" xmlns:xlink="http://www.w3.org/1999/xlink" version="1.1" width="1080" height="1080" viewBox="0 0 1080 1080" xml:space="preserve">
<desc>Created with Fabric.js 5.2.4</desc>
<defs>
</defs>
<g transform="matrix(1 0 0 1 540 540)" id="ddc4fb4e-6525-459e-b2cf-f434dd84b835"  >
<rect style="stroke: none; stroke-width: 1; stroke-dasharray: none; stroke-linecap: butt; stroke-dashoffset: 0; stroke-linejoin: miter; stroke-miterlimit: 4; fill: rgb(255,255,255); fill-rule: nonzero; opacity: 1; visibility: hidden;" vector-effect="non-scaling-stroke"  x="-540" y="-540" rx="0" ry="0" width="1080" height="1080" />
</g>
<g transform="matrix(1 0 0 1 540 540)" id="840fcebe-eeaa-478b-b9e4-a14241f561e7"  >
</g>
<g transform="matrix(43.27 0 0 43.03 546.14 540.73)"  >
<g style=""   >
		<g transform="matrix(0.09 0 0 0.09 -9.12 -8.98)"  >
<path style="stroke: none; stroke-width: 1; stroke-dasharray: none; stroke-linecap: butt; stroke-dashoffset: 0; stroke-linejoin: miter; stroke-miterlimit: 4; fill: rgb(0,0,0); fill-rule: nonzero; opacity: 1;" vector-effect="non-scaling-stroke"  transform=" translate(-33.14, -34.76)" d="M 33.144 2.471 C 15.336 2.471 0.85 16.958 0.85 34.765 C 0.85 52.572 15.33 67.05799999999999 33.144 67.05799999999999 C 50.958 67.05799999999999 65.43799999999999 52.57199999999999 65.43799999999999 34.76499999999999 C 65.43799999999999 16.958 50.951 2.471 33.144 2.471 z" stroke-linecap="round" />
</g>
		<g transform="matrix(0.09 0 0 0.09 -0.04 -8.98)"  >
<path style="stroke: none; stroke-width: 1; stroke-dasharray: none; stroke-linecap: butt; stroke-dashoffset: 0; stroke-linejoin: miter; stroke-miterlimit: 4; fill: rgb(0,0,0); fill-rule: nonzero; opacity: 1;" vector-effect="non-scaling-stroke"  transform=" translate(-137.66, -34.76)" d="M 137.663 2.471 C 119.85600000000001 2.471 105.36900000000001 16.958 105.36900000000001 34.765 C 105.36900000000001 52.572 119.85600000000001 67.05799999999999 137.663 67.05799999999999 C 155.471 67.05799999999999 169.96 52.57199999999999 169.96 34.76499999999999 C 169.96 16.958 155.477 2.471 137.663 2.471 z" stroke-linecap="round" />
</g>
		<g transform="matrix(0.09 0 0 0.09 9.19 -8.98)"  >
<path style="stroke: none; stroke-width: 1; stroke-dasharray: none; stroke-linecap: butt; stroke-dashoffset: 0; stroke-linejoin: miter; stroke-miterlimit: 4; fill: rgb(0,0,0); fill-rule: nonzero; opacity: 1;" vector-effect="non-scaling-stroke"  transform=" translate(-243.87, -34.77)" d="M 243.873 67.059 C 261.67699999999996 67.059 276.167 52.57299999999999 276.167 34.766 C 276.167 16.959000000000003 261.689 2.471 243.873 2.471 C 226.05699999999996 2.471 211.579 16.958 211.579 34.765 C 211.579 52.572 226.068 67.059 243.873 67.059 z" stroke-linecap="round" />
</g>
		<g transform="matrix(0.09 0 0 0.09 -9.19 0.01)"  >
<path style="stroke: none; stroke-width: 1; stroke-dasharray: none; stroke-linecap: butt; stroke-dashoffset: 0; stroke-linejoin: miter; stroke-miterlimit: 4; fill: rgb(0,0,0); fill-rule: nonzero; opacity: 1;" vector-effect="non-scaling-stroke"  transform=" translate(-32.3, -138.24)" d="M 32.3 170.539 C 50.107 170.539 64.597 156.05599999999998 64.597 138.24599999999998 C 64.597 120.43499999999997 50.10699999999999 105.94899999999998 32.3 105.94899999999998 C 14.493000000000002 105.94899999999998 0 120.436 0 138.246 C 0 156.056 14.493 170.539 32.3 170.539 z" stroke-linecap="round" />
</g>
		<g transform="matrix(0.09 0 0 0.09 -0.11 0.01)"  >
<path style="stroke: none; stroke-width: 1; stroke-dasharray: none; stroke-linecap: butt; stroke-dashoffset: 0; stroke-linejoin: miter; stroke-miterlimit: 4; fill: rgb(0,0,0); fill-rule: nonzero; opacity: 1;" vector-effect="non-scaling-stroke"  transform=" translate(-136.82, -138.24)" d="M 136.819 170.539 C 154.623 170.539 169.113 156.05599999999998 169.113 138.24599999999998 C 169.113 120.43499999999997 154.635 105.94899999999998 136.81900000000002 105.94899999999998 C 119.00600000000001 105.94899999999998 104.52500000000002 120.43499999999999 104.52500000000002 138.24599999999998 C 104.525 156.056 119.012 170.539 136.819 170.539 z" stroke-linecap="round" />
</g>
		<g transform="matrix(0.09 0 0 0.09 9.12 0.01)"  >
<path style="stroke: none; stroke-width: 1; stroke-dasharray: none; stroke-linecap: butt; stroke-dashoffset: 0; stroke-linejoin: miter; stroke-miterlimit: 4; fill: rgb(0,0,0); fill-rule: nonzero; opacity: 1;" vector-effect="non-scaling-stroke"  transform=" translate(-243.03, -138.24)" d="M 243.038 170.539 C 260.849 170.539 275.332 156.05599999999998 275.332 138.24599999999998 C 275.332 120.43499999999997 260.849 105.94899999999998 243.038 105.94899999999998 C 225.22700000000003 105.94899999999998 210.73200000000003 120.43499999999999 210.73200000000003 138.24599999999998 C 210.732 156.056 225.222 170.539 243.038 170.539 z" stroke-linecap="round" />
</g>
		<g transform="matrix(0.09 0 0 0.09 -9.13 8.98)"  >
<path style="stroke: none; stroke-width: 1; stroke-dasharray: none; stroke-linecap: butt; stroke-dashoffset: 0; stroke-linejoin: miter; stroke-miterlimit: 4; fill: rgb(0,0,0); fill-rule: nonzero; opacity: 1;" vector-effect="non-scaling-stroke"  transform=" translate(-33.04, -241.4)" d="M 33.039 209.108 C 15.232000000000003 209.108 0.7390000000000043 223.591 0.7390000000000043 241.402 C 0.7390000000000043 259.20599999999996 15.232000000000005 273.695 33.039 273.695 C 50.846 273.695 65.332 259.21299999999997 65.332 241.402 C 65.332 223.591 50.846 209.108 33.039 209.108 z" stroke-linecap="round" />
</g>
		<g transform="matrix(0.09 0 0 0.09 -0.05 8.98)"  >
<path style="stroke: none; stroke-width: 1; stroke-dasharray: none; stroke-linecap: butt; stroke-dashoffset: 0; stroke-linejoin: miter; stroke-miterlimit: 4; fill: rgb(0,0,0); fill-rule: nonzero; opacity: 1;" vector-effect="non-scaling-stroke"  transform=" translate(-137.56, -241.4)" d="M 137.564 209.108 C 119.756 209.108 105.264 223.591 105.264 241.402 C 105.264 259.20599999999996 119.75099999999999 273.695 137.564 273.695 C 155.368 273.695 169.857 259.21299999999997 169.857 241.402 C 169.857 223.591 155.368 209.108 137.564 209.108 z" stroke-linecap="round" />
</g>
		<g transform="matrix(0.09 0 0 0.09 9.18 8.98)"  >
<path style="stroke: none; stroke-width: 1; stroke-dasharray: none; stroke-linecap: butt; stroke-dashoffset: 0; stroke-linejoin: miter; stroke-miterlimit: 4; fill: rgb(0,0,0); fill-rule: nonzero; opacity: 1;" vector-effect="non-scaling-stroke"  transform=" translate(-243.77, -241.4)" d="M 243.771 209.108 C 225.96699999999998 209.108 211.47699999999998 223.591 211.47699999999998 241.402 C 211.47699999999998 259.20599999999996 225.96699999999998 273.695 243.77099999999996 273.695 C 261.58199999999994 273.695 276.06499999999994 259.21299999999997 276.06499999999994 241.402 C 276.06499999999994 223.591 261.575 209.108 243.771 209.108 z" stroke-linecap="round" />
</g>
</g>
</g>
</svg>