<?xml version="1.0" encoding="UTF-8" standalone="no" ?>
<!DOCTYPE svg PUBLIC "-//W3C//DTD SVG 1.1//EN" "http://www.w3.org/Graphics/SVG/1.1/DTD/svg11.dtd">
<svg xmlns="http://www.w3.org/2000/svg" xmlns:xlink="http://www.w3.org/1999/xlink" version="1.1" width="1080" height="1080" viewBox="0 0 1080 1080" xml:space="preserve">
<desc>Created with Fabric.js 5.2.4</desc>
<defs>
</defs>
<g transform="matrix(1 0 0 1 540 540)" id="e89ae4d7-b2d4-4dbc-9d31-30aa0dd109a5"  >
<rect style="stroke: none; stroke-width: 1; stroke-dasharray: none; stroke-linecap: butt; stroke-dashoffset: 0; stroke-linejoin: miter; stroke-miterlimit: 4; fill: rgb(255,255,255); fill-rule: nonzero; opacity: 1; visibility: hidden;" vector-effect="non-scaling-stroke"  x="-540" y="-540" rx="0" ry="0" width="1080" height="1080" />
</g>
<g transform="matrix(1 0 0 1 540 540)" id="7b4c7187-8aba-4bf9-95b6-b6ac7c2f01cd"  >
</g>
<g transform="matrix(45 0 0 45 540 540)"  >
<g style=""   >
		<g transform="matrix(1 0 0 1 -0.25 0.23)" id="TV"  >
<path style="stroke: none; stroke-width: 1; stroke-dasharray: none; stroke-linecap: butt; stroke-dashoffset: 0; stroke-linejoin: miter; stroke-miterlimit: 4; fill: rgb(0,0,0); fill-rule: nonzero; opacity: 1;" vector-effect="non-scaling-stroke"  transform=" translate(-12, -11.48)" d="M 8.47 0.47 C 8.762817546773958 0.177546621942486 9.237182453226042 0.17754662194248583 9.53 0.4699999999999994 L 12 2.939 L 14.47 0.47 C 14.656970580463984 0.26934682238795116 14.938555542158955 0.18675081849247077 15.204288908638551 0.25461445812572714 C 15.470022275118147 0.3224780977589835 15.677521902241017 0.5299777248818542 15.745385541874272 0.7957110913614495 C 15.81324918150753 1.0614444578410447 15.730653177612048 1.343029419536016 15.53 1.5299999999999996 L 13.809999999999999 3.25 L 14.033 3.25 C 15.405 3.25 16.48 3.25 17.345 3.321 C 18.129406355526957 3.354255515538472 18.899355338975006 3.5432584448087217 19.609999999999996 3.8769999999999984 C 20.692014753326646 4.428286234025918 21.57171376597408 5.307985246673352 22.122999999999998 6.389999999999997 C 22.456716296844796 7.100653592388053 22.645717961496437 7.870597424107433 22.679000000000002 8.655000000000001 C 22.750000000000004 9.519 22.750000000000004 10.594999999999999 22.750000000000004 11.966 L 22.750000000000004 12.033 C 22.750000000000004 13.405 22.750000000000004 14.48 22.679000000000002 15.344999999999999 C 22.64574448446153 16.129406355526957 22.45674155519128 16.89935533897501 22.123 17.61 C 21.57171376597408 18.692014753326642 20.692014753326646 19.57171376597408 19.61 20.122999999999998 C 19.27652130392951 20.290637243419802 18.923949156286227 20.41722743357363 18.56 20.499999999999996 L 19.529 21.469999999999995 C 19.798838151614174 21.766059177334583 19.78839046539954 22.22190890229339 19.50527192809674 22.50529478476834 C 19.222153390793935 22.78868066724329 18.766313729835854 22.7995585985669 18.47 22.53 L 16.66 20.720000000000002 C 15.928 20.750000000000004 15.06 20.750000000000004 14.023 20.750000000000004 L 9.977 20.750000000000004 C 8.939 20.750000000000004 8.072000000000001 20.750000000000004 7.34 20.720000000000002 L 5.53 22.53 C 5.234490245515521 22.805358860429134 4.77399027800525 22.79723387591737 4.488378201043939 22.51162179895606 C 4.202766124082627 22.22600972199475 4.194641139570866 21.76550975448448 4.47 21.47 L 5.4399999999999995 20.5 C 5.076053605510376 20.417217977965773 4.723482579681889 20.29062819059688 4.389999999999999 20.123 C 3.307985246673356 19.57171376597408 2.4282862340259186 18.692014753326646 1.8770000000000007 17.61 C 1.5432584448087225 16.89935533897501 1.3542555155384726 16.12940635552696 1.321 15.345 C 1.25 14.480999999999998 1.25 13.405 1.25 12.033 L 1.25 11.966 C 1.25 10.594 1.25 9.518999999999998 1.321 8.655 C 1.3542555155384723 7.870593644473041 1.5432584448087228 7.10064466102499 1.877 6.390000000000001 C 2.428286234025918 5.307985246673356 3.307985246673356 4.428286234025919 4.39 3.8770000000000002 C 5.10064466102499 3.5432584448087217 5.870593644473037 3.3542555155384726 6.654999999999996 3.3209999999999997 C 7.518999999999999 3.2499999999999996 8.594999999999999 3.2499999999999996 9.966999999999999 3.2499999999999996 L 10.19 3.2499999999999996 L 8.47 1.53 C 8.177546621942486 1.237182453226043 8.177546621942486 0.7628175467739571 8.47 0.47 Z" stroke-linecap="round" />
</g>
		<g transform="matrix(1 0 0 1 0 0)" id="Rectangle_322"  >
<rect style="stroke: none; stroke-width: 1; stroke-dasharray: none; stroke-linecap: butt; stroke-dashoffset: 0; stroke-linejoin: miter; stroke-miterlimit: 4; fill: none; fill-rule: nonzero; opacity: 1;" vector-effect="non-scaling-stroke"  x="-12" y="-12" rx="0" ry="0" width="24" height="24" />
</g>
</g>
</g>
</svg>