<?xml version="1.0" encoding="UTF-8" standalone="no" ?>
<!DOCTYPE svg PUBLIC "-//W3C//DTD SVG 1.1//EN" "http://www.w3.org/Graphics/SVG/1.1/DTD/svg11.dtd">
<svg xmlns="http://www.w3.org/2000/svg" xmlns:xlink="http://www.w3.org/1999/xlink" version="1.1" width="1080" height="1080" viewBox="0 0 1080 1080" xml:space="preserve">
<desc>Created with Fabric.js 5.2.4</desc>
<defs>
</defs>
<g transform="matrix(1 0 0 1 540 540)" id="ad59df73-fefe-4719-aa7f-0d1248a4bd97"  >
</g>
<g transform="matrix(1 0 0 1 540 540)" id="3a00ef14-2365-43b7-820e-b24681442c30"  >
<rect style="stroke: none; stroke-width: 1; stroke-dasharray: none; stroke-linecap: butt; stroke-dashoffset: 0; stroke-linejoin: miter; stroke-miterlimit: 4; fill: rgb(255,255,255); fill-rule: nonzero; opacity: 1; visibility: hidden;" vector-effect="non-scaling-stroke"  x="-540" y="-540" rx="0" ry="0" width="1080" height="1080" />
</g>
<g transform="matrix(45 0 0 45 557.64 543.21)"  >
<path style="stroke: none; stroke-width: 1; stroke-dasharray: none; stroke-linecap: butt; stroke-dashoffset: 0; stroke-linejoin: miter; stroke-miterlimit: 4; fill: rgb(0,0,0); fill-rule: evenodd; opacity: 1;" vector-effect="non-scaling-stroke"  transform=" translate(-11, -12)" d="M 14 1.732 C 12.143593539448979 0.6602032302755099 9.85640646055101 0.6602032302755105 7.999999999999993 1.7320000000000044 L 3.608 4.267 C 1.7504025688201381 5.339483789122026 0.6066247658746526 7.3220319808942005 0.6080000000000001 9.467 L 0.6080000000000001 14.539000000000001 C 0.6066247658746533 16.6839680191058 1.7504025688201394 18.66651621087798 3.608000000000002 19.739000000000004 L 8 22.267 C 9.85640646055102 23.338796769724492 12.143593539448982 23.33879676972449 14.000000000000002 22.267 L 18.392 19.730999999999998 C 20.24959743117986 18.658516210877973 21.393375234125347 16.675968019105795 21.392 14.530999999999997 L 21.392 9.464 C 21.393375234125347 7.3190319808942 20.24959743117986 5.336483789122026 18.392 4.264 Z M 10.1 16.247 Q 10.727 16.304 11.259 16.304 C 11.775344258745582 16.305621863877278 12.290669909737378 16.258073948061266 12.798 16.161999999999995 C 13.26258208056564 16.084952396861883 13.713581911769937 15.94113094210144 14.137 15.735000000000001 C 14.508994990457818 15.549848072863261 14.828973195686583 15.274893653762282 15.068000000000001 14.934999999999999 C 15.539815123140043 14.191920580172651 15.535909916397646 13.242174300421354 15.058000000000002 12.503 C 14.776559526277698 12.13045009131854 14.399085492028268 11.841468138358355 13.966000000000001 11.666999999999998 C 13.359923982502766 11.402208457500207 12.725429436794442 11.207934347523942 12.075000000000001 11.088 C 11.404903530702287 10.967034617802113 10.753421337619105 10.759286426199736 10.137000000000002 10.469999999999995 C 9.735135217204554 10.299845266422741 9.473494681089303 9.906400851211838 9.472000000000001 9.469999999999997 C 9.46414385323389 9.198967507224495 9.583684750007968 8.939900548271385 9.795000000000002 8.769999999999998 C 10.048201548782105 8.571046698455213 10.34442273037921 8.434065805231118 10.66 8.369999999999997 C 11.04256860728083 8.278860154646578 11.434734956630376 8.234204226167563 11.828000000000001 8.236999999999998 C 12.235330452681152 8.233077454763919 12.642220858065064 8.264865767684537 13.044000000000002 8.331999999999997 C 13.345300526483001 8.384343207720088 13.650225932095939 8.413097138512537 13.956 8.418 C 14.081669640173205 8.420065695629903 14.206778728088537 8.40079213343754 14.326 8.360999999999999 C 14.43099824421509 8.329096330502974 14.523784379066628 8.265959900397227 14.592 8.18 C 14.66248072565975 8.08372536056416 14.697780831545133 7.966176007965834 14.692 7.8469999999999995 Q 14.692 7.638 14.417 7.486 C 14.190729521586327 7.3622977850258895 13.947441898654095 7.272665502892962 13.694999999999999 7.219999999999999 C 13.375540260322927 7.146851774366797 13.051949788451207 7.093087000402558 12.726 7.058999999999999 C 12.393977259919247 7.021521632302159 12.060130940689483 7.002492392106062 11.725999999999997 7.002 C 11.193252712538223 6.999571452960858 10.661600886126523 7.0504921067822695 10.138999999999998 7.154000000000002 C 9.674659709009118 7.237260119209462 9.224060310653607 7.384319071473359 8.799999999999997 7.591000000000002 C 8.44066910656317 7.765230909935258 8.125454366837609 8.018565098803633 7.878000000000001 8.332 C 7.6552638253581415 8.627017258333845 7.5383178985449995 8.988422441798557 7.546000000000001 9.358 C 7.535220829421033 9.790628436578658 7.672455359947887 10.213974032034251 7.9350000000000005 10.558 C 8.241626249011025 10.929574455116871 8.632433173364719 11.22267964838214 9.075000000000001 11.413 C 9.666694564551147 11.669679077318905 10.284708576994694 11.86081743168289 10.918000000000003 11.983 C 11.478799889477175 12.088690984360388 12.03123628780816 12.234737388516852 12.571000000000005 12.419999999999998 C 12.891581244116594 12.516645702006324 13.18234639420028 12.693169396672515 13.416000000000002 12.933 C 13.588131197825067 13.144306505974207 13.676099261738262 13.41177215779125 13.663000000000002 13.684 C 13.67344409679879 14.004959296754034 13.519663384207778 14.309128500334785 13.255000000000003 14.491 C 12.94808155125097 14.70442228498729 12.597681475437486 14.84717787142982 12.229000000000003 14.908999999999999 C 11.800724543318532 14.992471517146978 11.365332852988397 15.034001186070775 10.929000000000002 15.033 C 10.52149726052516 15.035951321683346 10.11454581173406 15.002484919644603 9.713000000000003 14.933 Q 9.143000000000002 14.818999999999999 8.687000000000003 14.715 C 8.453673305970794 14.655856391192787 8.2145943831374 14.622324985465804 7.973999999999999 14.615 C 7.795912526126822 14.602949776540745 7.619170270331734 14.653144577186549 7.474000000000002 14.757 C 7.3540760862394166 14.865682665924636 7.290982049435514 15.023602243422122 7.303000000000003 15.185 C 7.297139654458357 15.337228662353452 7.359906468827413 15.484051619941885 7.474000000000003 15.585 C 7.616697545760508 15.699081448722861 7.777167769503951 15.788944774019189 7.9490000000000025 15.851 C 8.256557693257582 15.967118366212947 8.574740684741466 16.052860309181238 8.899000000000003 16.107 C 9.296574887113266 16.174879282616153 9.697471963344896 16.22161166452492 10.1 16.247 Z" stroke-linecap="round" />
</g>
<g transform="matrix(45 0 0 45 540 540)" id="Rectangle_310"  >
<rect style="stroke: none; stroke-width: 1; stroke-dasharray: none; stroke-linecap: butt; stroke-dashoffset: 0; stroke-linejoin: miter; stroke-miterlimit: 4; fill: none; fill-rule: nonzero; opacity: 1;" vector-effect="non-scaling-stroke"  x="-12" y="-12" rx="0" ry="0" width="24" height="24" />
</g>
</svg>