<?xml version="1.0" encoding="UTF-8" standalone="no" ?>
<!DOCTYPE svg PUBLIC "-//W3C//DTD SVG 1.1//EN" "http://www.w3.org/Graphics/SVG/1.1/DTD/svg11.dtd">
<svg xmlns="http://www.w3.org/2000/svg" xmlns:xlink="http://www.w3.org/1999/xlink" version="1.1" width="1080" height="1080" viewBox="0 0 1080 1080" xml:space="preserve">
<desc>Created with Fabric.js 5.2.4</desc>
<defs>
</defs>
<g transform="matrix(1 0 0 1 540 540)" id="5159702d-7c4f-4622-ae55-808e19aa77e1"  >
<rect style="stroke: none; stroke-width: 1; stroke-dasharray: none; stroke-linecap: butt; stroke-dashoffset: 0; stroke-linejoin: miter; stroke-miterlimit: 4; fill: rgb(255,255,255); fill-rule: nonzero; opacity: 1; visibility: hidden;" vector-effect="non-scaling-stroke"  x="-540" y="-540" rx="0" ry="0" width="1080" height="1080" />
</g>
<g transform="matrix(1 0 0 1 540 540)" id="284747ed-ca05-41d5-84e4-fbd2a2f99001"  >
</g>
<g transform="matrix(45 0 0 45 540 540)"  >
<g style=""   >
		<g transform="matrix(1 0 0 1 0.77 -0.03)" id="Path_55"  >
<path style="stroke: none; stroke-width: 1; stroke-dasharray: none; stroke-linecap: butt; stroke-dashoffset: 0; stroke-linejoin: miter; stroke-miterlimit: 4; fill: rgb(0,0,0); fill-rule: nonzero; opacity: 1;" vector-effect="non-scaling-stroke"  transform=" translate(-12.5, -12)" d="M 10.733 8.752 C 10.963797654339519 8.760343675169915 11.188327581123353 8.829323683398435 11.384 8.952 C 11.784 9.152 12.290000000000001 9.459 13.028 9.914 C 13.766 10.369 14.274000000000001 10.682 14.628 10.952 C 14.842738121275723 11.083500582851268 15.020346885666498 11.267649204845581 15.143999999999998 11.486999999999998 C 15.279060567168239 11.813240741639332 15.279060567168239 12.179759258360669 15.144 12.506 C 15.02038264394433 12.725377434113634 14.842766035284006 12.909534189216876 14.628 13.041 C 14.27 13.311 13.762 13.624 13.028 14.079 C 12.294 14.534 11.781 14.845 11.384 15.041 C 11.18830784365475 15.163633164153524 10.963789759493924 15.232609534095406 10.733 15.241 C 10.421555315710238 15.201561972791723 10.143049612158576 15.027587281334254 9.971 14.765 C 9.850648976719903 14.528793208845583 9.788910762951955 14.26709178048478 9.791 14.002 C 9.75 13.531 9.75 12.902000000000001 9.75 11.993 C 9.75 11.084 9.75 10.455 9.791 9.984 C 9.788949968497722 9.718912626366008 9.850686018073217 9.457220371776547 9.971 9.221 C 10.144590396252813 8.961168276895348 10.422825334626886 8.789918688840965 10.733 8.752 Z" stroke-linecap="round" />
</g>
		<g transform="matrix(1 0 0 1 0.28 -0.02)" id="Path_56"  >
<path style="stroke: none; stroke-width: 1; stroke-dasharray: none; stroke-linecap: butt; stroke-dashoffset: 0; stroke-linejoin: miter; stroke-miterlimit: 4; fill: rgb(0,0,0); fill-rule: evenodd; opacity: 1;" vector-effect="non-scaling-stroke"  transform=" translate(-12, -12)" d="M 11.715 1.031 Q 12 1.017 12.285 1.031 C 13.037937137917881 1.0860466404643156 13.77246128429368 1.289986708870368 14.445999999999998 1.6309999999999978 C 15.179 1.9709999999999999 16.03 2.4629999999999996 17.107 3.085 L 17.168 3.12 C 18.246 3.74 19.1 4.232 19.758 4.7 C 20.390087098850483 5.112979841013877 20.933926215378385 5.647301773002541 21.358 6.272 Q 21.513 6.5120000000000005 21.643 6.766 C 21.96985593896097 7.444496496787344 22.159161364315818 8.180986365268414 22.2 8.933 C 22.272 9.733 22.272 10.721 22.272 11.965 L 22.272 12.035 C 22.272 13.279 22.272 14.262 22.2 15.067 C 22.1581180904977 15.820717312208867 21.967096170957866 16.558632948011322 21.637999999999998 17.238 Q 21.508 17.492 21.352999999999998 17.732 C 20.928926215378382 18.35669822699746 20.38508709885048 18.89102015898612 19.752999999999997 19.304 C 19.091999999999995 19.769 18.240999999999996 20.259999999999998 17.163999999999998 20.881999999999998 L 17.102999999999998 20.916999999999998 C 16.025999999999996 21.538999999999998 15.173999999999998 22.029999999999998 14.441999999999998 22.369999999999997 C 13.768442024061503 22.71096359464042 13.033928019910523 22.914900847065496 12.280999999999999 22.97 Q 11.995999999999999 22.983999999999998 11.710999999999999 22.97 C 10.958071980089477 22.914900847065496 10.223557975938494 22.71096359464042 9.549999999999999 22.369999999999997 C 8.816999999999998 22.029999999999998 7.965999999999999 21.537999999999997 6.888999999999999 20.916999999999998 L 6.827999999999999 20.881999999999998 C 5.754 20.26 4.9 19.768 4.242 19.3 C 3.6099129011495164 18.887020158986125 3.0660737846216137 18.352698226997457 2.6419999999999995 17.728 Q 2.487 17.488000000000003 2.3569999999999998 17.234 C 2.0301440610390302 16.55550350321266 1.840838635684181 15.819013634731585 1.7999999999999994 15.067 C 1.728 14.267 1.728 13.279 1.728 12.036 L 1.728 11.965 C 1.728 10.721 1.728 9.738 1.8 8.933 C 1.8418819095022978 8.179282687791133 2.032903829042132 7.441367051988678 2.361999999999999 6.7620000000000005 Q 2.492 6.508000000000001 2.6470000000000002 6.268000000000001 C 3.070018914780589 5.645228630334241 3.612097960560546 5.112325844263412 4.241999999999997 4.700000000000003 C 4.9 4.232 5.754 3.74 6.831 3.118 L 6.892 3.0829999999999997 C 7.969 2.461 8.821 1.9699999999999998 9.553 1.6289999999999998 C 10.227000205426036 1.2885783380117628 10.961864722447965 1.0853179396865495 11.715 1.0310000000000008 Z M 13.781 8.62 C 13.081000000000001 8.190999999999999 12.515 7.840999999999999 12.046000000000001 7.609999999999999 C 11.596809145610258 7.3538857907593895 11.08330104227166 7.232713155150755 10.566999999999998 7.260999999999999 C 9.820810042303057 7.349015506063148 9.150418124505322 7.7589227168364765 8.731999999999998 8.383000000000001 C 8.463046307302909 8.83057571141392 8.314241475159033 9.340025588128718 8.3 9.862000000000002 C 8.253 10.405 8.253 11.101 8.253 11.962 L 8.253 12.033999999999999 C 8.253 12.895999999999999 8.253 13.592999999999998 8.3 14.133999999999999 C 8.315149936725346 14.6562446335939 8.464993616511236 15.165713144865927 8.735000000000001 15.613000000000001 C 9.153197966280816 16.23682993117662 9.823173307490022 16.64670579422827 10.568999999999999 16.735 C 11.085301042271663 16.763286844849244 11.598809145610259 16.64211420924061 12.048000000000002 16.386 C 12.517000000000001 16.154999999999998 13.086000000000002 15.805 13.783000000000001 15.376 L 13.849000000000002 15.334999999999999 C 14.549000000000001 14.905999999999999 15.116000000000001 14.555 15.537000000000003 14.235 C 15.968133410248843 13.94693172693867 16.313596920164397 13.547921372986206 16.537000000000003 13.08 C 16.826500896314474 12.383900265160994 16.826500896314474 11.601099734839007 16.537000000000003 10.905000000000001 C 16.31355521070092 10.437105926285973 15.968100422889123 10.038105646363348 15.537 9.750000000000002 C 15.116000000000003 9.433000000000002 14.547000000000002 9.082000000000003 13.849000000000002 8.650000000000002 Z" stroke-linecap="round" />
</g>
		<g transform="matrix(1 0 0 1 0 0)" id="Rectangle_320"  >
<rect style="stroke: none; stroke-width: 1; stroke-dasharray: none; stroke-linecap: butt; stroke-dashoffset: 0; stroke-linejoin: miter; stroke-miterlimit: 4; fill: none; fill-rule: nonzero; opacity: 1;" vector-effect="non-scaling-stroke"  x="-12" y="-12" rx="0" ry="0" width="24" height="24" />
</g>
</g>
</g>
</svg>