<?xml version="1.0" encoding="UTF-8" standalone="no" ?>
<!DOCTYPE svg PUBLIC "-//W3C//DTD SVG 1.1//EN" "http://www.w3.org/Graphics/SVG/1.1/DTD/svg11.dtd">
<svg xmlns="http://www.w3.org/2000/svg" xmlns:xlink="http://www.w3.org/1999/xlink" version="1.1" width="1080" height="1080" viewBox="0 0 1080 1080" xml:space="preserve">
<desc>Created with Fabric.js 5.2.4</desc>
<defs>
</defs>
<g transform="matrix(1 0 0 1 540 540)" id="30817c7c-0288-467e-9662-206bcb3d0d14"  >
<rect style="stroke: none; stroke-width: 1; stroke-dasharray: none; stroke-linecap: butt; stroke-dashoffset: 0; stroke-linejoin: miter; stroke-miterlimit: 4; fill: rgb(255,255,255); fill-rule: nonzero; opacity: 1; visibility: hidden;" vector-effect="non-scaling-stroke"  x="-540" y="-540" rx="0" ry="0" width="1080" height="1080" />
</g>
<g transform="matrix(1 0 0 1 540 540)" id="0237aac8-2db8-4a3d-ba56-c563333b80a2"  >
</g>
<g transform="matrix(45 0 0 45 540 540)"  >
<g style=""   >
		<g transform="matrix(1 0 0 1 -1.25 0)" id="Path_42"  >
<path style="stroke: none; stroke-width: 1; stroke-dasharray: none; stroke-linecap: butt; stroke-dashoffset: 0; stroke-linejoin: miter; stroke-miterlimit: 4; fill: rgb(0,0,0); fill-rule: evenodd; opacity: 1;" vector-effect="non-scaling-stroke"  transform=" translate(-12, -12)" d="M 20 7 C 18.931362795956208 7.0002677633240875 17.943260401562686 6.432056690800363 17.405983924689934 5.508303729796754 C 16.868707447817187 4.584550768793147 16.863380746259452 3.4447342085540478 17.392 2.516 C 17.099 2.455 16.791999999999998 2.409 16.463 2.374 C 15.321000000000002 2.25 13.881 2.25 12.045000000000002 2.25 L 11.955000000000002 2.25 C 10.118000000000002 2.25 8.679000000000002 2.25 7.537000000000002 2.374 C 6.495296591478906 2.431577725320245 5.488194082913637 2.767969303969961 4.620999999999997 3.348000000000004 C 4.132535488402559 3.702558301522019 3.7029420540725617 4.131814270467621 3.3479999999999994 4.619999999999997 C 2.7679693039699584 5.48719408291364 2.4315777253202437 6.494296591478906 2.3739999999999997 7.536000000000003 C 2.2499999999999996 8.677999999999999 2.2499999999999996 10.117999999999999 2.2499999999999996 11.954 L 2.2499999999999996 12.044 C 2.2499999999999996 13.881 2.2499999999999996 15.32 2.3739999999999997 16.462 C 2.4316263149749995 17.503694124023205 2.7680137195417087 18.51078413605249 3.3480000000000008 19.378 C 3.702464399176296 19.86683109275637 4.131726406347313 20.296768040190234 4.620000000000003 20.652 C 5.4870914105619475 21.232384678232734 6.494201423728093 21.569124137367506 7.535999999999998 21.627000000000002 C 8.677999999999999 21.751 10.117999999999999 21.751 11.954 21.751 L 12.045 21.751 C 13.882 21.751 15.321 21.751 16.463 21.627000000000002 C 17.504798576271906 21.569124137367506 18.51190858943805 21.232384678232737 19.379 20.652 C 19.867119598484557 20.29737323549003 20.29637323549003 19.868119598484558 20.651000000000003 19.380000000000003 C 21.231384678232732 18.512908589438055 21.568124137367505 17.505798576271907 21.626 16.464000000000006 C 21.75 15.322000000000003 21.75 13.882000000000001 21.75 12.046000000000003 L 21.75 11.955000000000004 C 21.75 10.118000000000004 21.75 8.679000000000004 21.626 7.5370000000000035 C 21.591 7.211000000000004 21.545 6.902000000000004 21.484 6.608000000000003 C 21.03194108442808 6.865743712583306 20.52037324987123 7.000874838692662 20 7 Z M 17.33 8.469 C 17.699764908313966 8.651389793861618 17.852969774076357 9.098051210078498 17.673 9.469 L 16.212999999999997 12.446 C 15.746485099057391 13.397545637393085 14.764930730300486 13.986683265575165 13.705784160490241 13.950853159484172 C 12.646637590679996 13.91502305339318 11.707141840181148 13.260897791260325 11.305999999999997 12.28 C 11.128632947241972 11.845679533394732 10.712821268008097 11.555943545083217 10.243952246880086 11.539969186168173 C 9.775083225752075 11.523994827253132 9.340516035822235 11.784758423152992 9.133999999999997 12.206 L 7.673999999999997 15.183 C 7.49146989018092 15.55496377901104 7.041963779011036 15.708530109819078 6.669999999999996 15.526 C 6.2980362209889575 15.343469890180923 6.144469890180919 14.89396377901104 6.326999999999996 14.522 L 7.786999999999996 11.545 C 8.253514900942601 10.593454362606916 9.235069269699505 10.004316734424837 10.29421583950975 10.040146840515828 C 11.353362409319995 10.07597694660682 12.292858159818845 10.730102208739675 12.693999999999996 11.710999999999999 C 12.871367052758021 12.145320466605268 13.287178731991895 12.435056454916783 13.756047753119907 12.451030813831826 C 14.224916774247918 12.46700517274687 14.659483964177758 12.206241576847008 14.865999999999996 11.785 L 16.325999999999997 8.808 C 16.509904826139575 8.437449984966403 16.959113367415377 8.285774989455948 17.33 8.469 Z" stroke-linecap="round" />
</g>
		<g transform="matrix(1 0 0 1 6.75 -8)" id="Path_43"  >
<path style="stroke: none; stroke-width: 1; stroke-dasharray: none; stroke-linecap: butt; stroke-dashoffset: 0; stroke-linejoin: miter; stroke-miterlimit: 4; fill: rgb(0,0,0); fill-rule: nonzero; opacity: 1;" vector-effect="non-scaling-stroke"  transform=" translate(-20, -4)" d="M 18 4 C 18 5.1045694996615865 18.895430500338414 6 20 6 C 21.104569499661586 6 22 5.1045694996615865 22 4 C 22 2.895430500338413 21.104569499661586 2 20 2 C 18.895430500338414 2 18 2.895430500338413 18 4 Z" stroke-linecap="round" />
</g>
		<g transform="matrix(1 0 0 1 0 0)" id="Rectangle_313"  >
<rect style="stroke: none; stroke-width: 1; stroke-dasharray: none; stroke-linecap: butt; stroke-dashoffset: 0; stroke-linejoin: miter; stroke-miterlimit: 4; fill: none; fill-rule: nonzero; opacity: 1;" vector-effect="non-scaling-stroke"  x="-12" y="-12" rx="0" ry="0" width="24" height="24" />
</g>
</g>
</g>
<g transform="matrix(45 0 0 45 540 540)"  >
<g style=""   >
		<g transform="matrix(1 0 0 1 -1.25 0)" id="Path_42"  >
<path style="stroke: none; stroke-width: 1; stroke-dasharray: none; stroke-linecap: butt; stroke-dashoffset: 0; stroke-linejoin: miter; stroke-miterlimit: 4; fill: rgb(0,0,0); fill-rule: evenodd; opacity: 1;" vector-effect="non-scaling-stroke"  transform=" translate(-12, -12)" d="M 20 7 C 18.931362795956208 7.0002677633240875 17.943260401562686 6.432056690800363 17.405983924689934 5.508303729796754 C 16.868707447817187 4.584550768793147 16.863380746259452 3.4447342085540478 17.392 2.516 C 17.099 2.455 16.791999999999998 2.409 16.463 2.374 C 15.321000000000002 2.25 13.881 2.25 12.045000000000002 2.25 L 11.955000000000002 2.25 C 10.118000000000002 2.25 8.679000000000002 2.25 7.537000000000002 2.374 C 6.495296591478906 2.431577725320245 5.488194082913637 2.767969303969961 4.620999999999997 3.348000000000004 C 4.132535488402559 3.702558301522019 3.7029420540725617 4.131814270467621 3.3479999999999994 4.619999999999997 C 2.7679693039699584 5.48719408291364 2.4315777253202437 6.494296591478906 2.3739999999999997 7.536000000000003 C 2.2499999999999996 8.677999999999999 2.2499999999999996 10.117999999999999 2.2499999999999996 11.954 L 2.2499999999999996 12.044 C 2.2499999999999996 13.881 2.2499999999999996 15.32 2.3739999999999997 16.462 C 2.4316263149749995 17.503694124023205 2.7680137195417087 18.51078413605249 3.3480000000000008 19.378 C 3.702464399176296 19.86683109275637 4.131726406347313 20.296768040190234 4.620000000000003 20.652 C 5.4870914105619475 21.232384678232734 6.494201423728093 21.569124137367506 7.535999999999998 21.627000000000002 C 8.677999999999999 21.751 10.117999999999999 21.751 11.954 21.751 L 12.045 21.751 C 13.882 21.751 15.321 21.751 16.463 21.627000000000002 C 17.504798576271906 21.569124137367506 18.51190858943805 21.232384678232737 19.379 20.652 C 19.867119598484557 20.29737323549003 20.29637323549003 19.868119598484558 20.651000000000003 19.380000000000003 C 21.231384678232732 18.512908589438055 21.568124137367505 17.505798576271907 21.626 16.464000000000006 C 21.75 15.322000000000003 21.75 13.882000000000001 21.75 12.046000000000003 L 21.75 11.955000000000004 C 21.75 10.118000000000004 21.75 8.679000000000004 21.626 7.5370000000000035 C 21.591 7.211000000000004 21.545 6.902000000000004 21.484 6.608000000000003 C 21.03194108442808 6.865743712583306 20.52037324987123 7.000874838692662 20 7 Z M 17.33 8.469 C 17.699764908313966 8.651389793861618 17.852969774076357 9.098051210078498 17.673 9.469 L 16.212999999999997 12.446 C 15.746485099057391 13.397545637393085 14.764930730300486 13.986683265575165 13.705784160490241 13.950853159484172 C 12.646637590679996 13.91502305339318 11.707141840181148 13.260897791260325 11.305999999999997 12.28 C 11.128632947241972 11.845679533394732 10.712821268008097 11.555943545083217 10.243952246880086 11.539969186168173 C 9.775083225752075 11.523994827253132 9.340516035822235 11.784758423152992 9.133999999999997 12.206 L 7.673999999999997 15.183 C 7.49146989018092 15.55496377901104 7.041963779011036 15.708530109819078 6.669999999999996 15.526 C 6.2980362209889575 15.343469890180923 6.144469890180919 14.89396377901104 6.326999999999996 14.522 L 7.786999999999996 11.545 C 8.253514900942601 10.593454362606916 9.235069269699505 10.004316734424837 10.29421583950975 10.040146840515828 C 11.353362409319995 10.07597694660682 12.292858159818845 10.730102208739675 12.693999999999996 11.710999999999999 C 12.871367052758021 12.145320466605268 13.287178731991895 12.435056454916783 13.756047753119907 12.451030813831826 C 14.224916774247918 12.46700517274687 14.659483964177758 12.206241576847008 14.865999999999996 11.785 L 16.325999999999997 8.808 C 16.509904826139575 8.437449984966403 16.959113367415377 8.285774989455948 17.33 8.469 Z" stroke-linecap="round" />
</g>
		<g transform="matrix(1 0 0 1 6.75 -8)" id="Path_43"  >
<path style="stroke: none; stroke-width: 1; stroke-dasharray: none; stroke-linecap: butt; stroke-dashoffset: 0; stroke-linejoin: miter; stroke-miterlimit: 4; fill: rgb(0,0,0); fill-rule: nonzero; opacity: 1;" vector-effect="non-scaling-stroke"  transform=" translate(-20, -4)" d="M 18 4 C 18 5.1045694996615865 18.895430500338414 6 20 6 C 21.104569499661586 6 22 5.1045694996615865 22 4 C 22 2.895430500338413 21.104569499661586 2 20 2 C 18.895430500338414 2 18 2.895430500338413 18 4 Z" stroke-linecap="round" />
</g>
		<g transform="matrix(1 0 0 1 0 0)" id="Rectangle_313"  >
<rect style="stroke: none; stroke-width: 1; stroke-dasharray: none; stroke-linecap: butt; stroke-dashoffset: 0; stroke-linejoin: miter; stroke-miterlimit: 4; fill: none; fill-rule: nonzero; opacity: 1;" vector-effect="non-scaling-stroke"  x="-12" y="-12" rx="0" ry="0" width="24" height="24" />
</g>
</g>
</g>
<g transform="matrix(45 0 0 45 540 540)"  >
<g style=""   >
		<g transform="matrix(1 0 0 1 -1.25 0)" id="Path_42"  >
<path style="stroke: none; stroke-width: 1; stroke-dasharray: none; stroke-linecap: butt; stroke-dashoffset: 0; stroke-linejoin: miter; stroke-miterlimit: 4; fill: rgb(0,0,0); fill-rule: evenodd; opacity: 1;" vector-effect="non-scaling-stroke"  transform=" translate(-12, -12)" d="M 20 7 C 18.931362795956208 7.0002677633240875 17.943260401562686 6.432056690800363 17.405983924689934 5.508303729796754 C 16.868707447817187 4.584550768793147 16.863380746259452 3.4447342085540478 17.392 2.516 C 17.099 2.455 16.791999999999998 2.409 16.463 2.374 C 15.321000000000002 2.25 13.881 2.25 12.045000000000002 2.25 L 11.955000000000002 2.25 C 10.118000000000002 2.25 8.679000000000002 2.25 7.537000000000002 2.374 C 6.495296591478906 2.431577725320245 5.488194082913637 2.767969303969961 4.620999999999997 3.348000000000004 C 4.132535488402559 3.702558301522019 3.7029420540725617 4.131814270467621 3.3479999999999994 4.619999999999997 C 2.7679693039699584 5.48719408291364 2.4315777253202437 6.494296591478906 2.3739999999999997 7.536000000000003 C 2.2499999999999996 8.677999999999999 2.2499999999999996 10.117999999999999 2.2499999999999996 11.954 L 2.2499999999999996 12.044 C 2.2499999999999996 13.881 2.2499999999999996 15.32 2.3739999999999997 16.462 C 2.4316263149749995 17.503694124023205 2.7680137195417087 18.51078413605249 3.3480000000000008 19.378 C 3.702464399176296 19.86683109275637 4.131726406347313 20.296768040190234 4.620000000000003 20.652 C 5.4870914105619475 21.232384678232734 6.494201423728093 21.569124137367506 7.535999999999998 21.627000000000002 C 8.677999999999999 21.751 10.117999999999999 21.751 11.954 21.751 L 12.045 21.751 C 13.882 21.751 15.321 21.751 16.463 21.627000000000002 C 17.504798576271906 21.569124137367506 18.51190858943805 21.232384678232737 19.379 20.652 C 19.867119598484557 20.29737323549003 20.29637323549003 19.868119598484558 20.651000000000003 19.380000000000003 C 21.231384678232732 18.512908589438055 21.568124137367505 17.505798576271907 21.626 16.464000000000006 C 21.75 15.322000000000003 21.75 13.882000000000001 21.75 12.046000000000003 L 21.75 11.955000000000004 C 21.75 10.118000000000004 21.75 8.679000000000004 21.626 7.5370000000000035 C 21.591 7.211000000000004 21.545 6.902000000000004 21.484 6.608000000000003 C 21.03194108442808 6.865743712583306 20.52037324987123 7.000874838692662 20 7 Z M 17.33 8.469 C 17.699764908313966 8.651389793861618 17.852969774076357 9.098051210078498 17.673 9.469 L 16.212999999999997 12.446 C 15.746485099057391 13.397545637393085 14.764930730300486 13.986683265575165 13.705784160490241 13.950853159484172 C 12.646637590679996 13.91502305339318 11.707141840181148 13.260897791260325 11.305999999999997 12.28 C 11.128632947241972 11.845679533394732 10.712821268008097 11.555943545083217 10.243952246880086 11.539969186168173 C 9.775083225752075 11.523994827253132 9.340516035822235 11.784758423152992 9.133999999999997 12.206 L 7.673999999999997 15.183 C 7.49146989018092 15.55496377901104 7.041963779011036 15.708530109819078 6.669999999999996 15.526 C 6.2980362209889575 15.343469890180923 6.144469890180919 14.89396377901104 6.326999999999996 14.522 L 7.786999999999996 11.545 C 8.253514900942601 10.593454362606916 9.235069269699505 10.004316734424837 10.29421583950975 10.040146840515828 C 11.353362409319995 10.07597694660682 12.292858159818845 10.730102208739675 12.693999999999996 11.710999999999999 C 12.871367052758021 12.145320466605268 13.287178731991895 12.435056454916783 13.756047753119907 12.451030813831826 C 14.224916774247918 12.46700517274687 14.659483964177758 12.206241576847008 14.865999999999996 11.785 L 16.325999999999997 8.808 C 16.509904826139575 8.437449984966403 16.959113367415377 8.285774989455948 17.33 8.469 Z" stroke-linecap="round" />
</g>
		<g transform="matrix(1 0 0 1 6.75 -8)" id="Path_43"  >
<path style="stroke: none; stroke-width: 1; stroke-dasharray: none; stroke-linecap: butt; stroke-dashoffset: 0; stroke-linejoin: miter; stroke-miterlimit: 4; fill: rgb(0,0,0); fill-rule: nonzero; opacity: 1;" vector-effect="non-scaling-stroke"  transform=" translate(-20, -4)" d="M 18 4 C 18 5.1045694996615865 18.895430500338414 6 20 6 C 21.104569499661586 6 22 5.1045694996615865 22 4 C 22 2.895430500338413 21.104569499661586 2 20 2 C 18.895430500338414 2 18 2.895430500338413 18 4 Z" stroke-linecap="round" />
</g>
		<g transform="matrix(1 0 0 1 0 0)" id="Rectangle_313"  >
<rect style="stroke: none; stroke-width: 1; stroke-dasharray: none; stroke-linecap: butt; stroke-dashoffset: 0; stroke-linejoin: miter; stroke-miterlimit: 4; fill: none; fill-rule: nonzero; opacity: 1;" vector-effect="non-scaling-stroke"  x="-12" y="-12" rx="0" ry="0" width="24" height="24" />
</g>
</g>
</g>
</svg>